<?xml version="1.0" encoding="UTF-8"?>
<svg version="1.1" xmlns="http://www.w3.org/2000/svg" width="297" height="169">
<path d="M0 0 C98.01 0 196.02 0 297 0 C297 55.77 297 111.54 297 169 C198.99 169 100.98 169 0 169 C0 113.23 0 57.46 0 0 Z " fill="#FAB605" transform="translate(0,0)"/>
<path d="M0 0 C98.01 0 196.02 0 297 0 C297 55.77 297 111.54 297 169 C198.99 169 100.98 169 0 169 C0 113.23 0 57.46 0 0 Z M141.34814453 1.21533203 C120.43314306 3.06687004 101.34434175 7.65346729 83 18 C81.8759375 18.62390625 80.751875 19.2478125 79.59375 19.890625 C74.18294188 22.97103556 68.87754991 26.12013076 64 30 C64 30.66 64 31.32 64 32 C63.4121875 32.27070312 62.824375 32.54140625 62.21875 32.8203125 C58.28836529 34.9100593 55.24671536 37.98632783 52 41 C51.07574219 41.84691406 50.15148438 42.69382813 49.19921875 43.56640625 C38.09860543 54.02036422 29.87123326 66.42824736 23 80 C22.37738281 81.13695313 22.37738281 81.13695313 21.7421875 82.296875 C15.83719729 93.36408936 12.09634277 105.24281849 9.625 117.5 C9.45734131 118.29253174 9.28968262 119.08506348 9.11694336 119.90161133 C8.06356151 125.58192324 7.91654614 131.09775373 7.95849609 136.85351562 C7.96149216 137.63881653 7.96448822 138.42411743 7.96757507 139.23321533 C7.9753424 141.15549158 7.98725055 143.07775034 8 145 C17.37035938 145.02312504 26.74070901 145.04091591 36.11109066 145.05181217 C40.46168459 145.05704065 44.81225907 145.06413765 49.1628418 145.07543945 C53.35790258 145.08626959 57.55294459 145.0922771 61.74801826 145.09487724 C63.35206968 145.09673126 64.95612003 145.10035144 66.5601635 145.10573006 C68.79916515 145.11294219 71.0380883 145.11399087 73.27709961 145.11352539 C74.55395126 145.115746 75.83080292 145.11796661 77.14634705 145.12025452 C79.89888855 145.32668089 79.89888855 145.32668089 81 144 C81.17664923 142.34630782 81.3481496 140.69190087 81.4934082 139.03515625 C82.68424843 126.16509438 86.7050631 114.72784839 94 104 C94 103.34 94 102.68 94 102 C94.66 102 95.32 102 96 102 C96.98432273 100.91573065 97.91138021 99.77934586 98.8125 98.625 C111.43323888 83.91818858 128.62294962 76.43412905 147.76953125 74.6484375 C164.82622911 74.00222163 180.23451445 78.99361974 194 89 C195.33561448 90.33104828 196.66970041 91.66363981 198 93 C198.66 93 199.32 93 200 93 C200.33 93.99 200.66 94.98 201 96 C202.11375 97.11375 202.11375 97.11375 203.25 98.25 C206.30495479 101.30495479 208.55938043 104.44366862 211 108 C209.783125 108.2475 208.56625 108.495 207.3125 108.75 C198.8762424 110.62324775 190.69033168 113.42373693 182.50341797 116.16333008 C179.79168156 117.06962232 177.07762609 117.9687389 174.36328125 118.8671875 C170.21472558 120.24085891 166.07118674 121.62864687 161.9296875 123.0234375 C158.48899652 124.18049366 155.04595368 125.30444571 151.5703125 126.3515625 C144.23990347 128.66891761 138.96597237 131.14472817 135 138 C133.32036475 143.29186287 133.34925883 148.1244536 135.6875 153.1875 C137.94381664 157.33077184 140.76922615 159.88461307 145 162 C151.2052529 162.57438608 157.13435336 162.96067306 162.4296875 159.328125 C164.829679 157.29828144 167.02848699 155.11555796 169.19921875 152.84375 C171.59505692 150.39074433 174.17046898 148.18728935 176.765625 145.94921875 C179.37851376 143.66979306 181.93930021 141.33787647 184.5 139 C188.28466557 135.54850994 192.0983871 132.1399995 195.96875 128.78515625 C198.36339356 126.68063297 200.70953221 124.52598109 203.0625 122.375 C206.87448753 118.92830339 210.74063077 115.87044448 215 113 C218.25262387 123.21923668 220.66854774 133.34838194 222 144 C246.09 144 270.18 144 295 144 C295 108.85813788 282.47905408 73.70300678 258 48 C257.34 48 256.68 48 256 48 C255.7525 47.4225 255.505 46.845 255.25 46.25 C253.81700012 43.67060021 252.21575324 41.93878408 250 40 C249.34 40 248.68 40 248 40 C247.67 39.01 247.34 38.02 247 37 C245.48182111 35.49150514 245.48182111 35.49150514 243.5703125 34.07421875 C242.50876953 33.25425415 242.50876953 33.25425415 241.42578125 32.41772461 C240.66652344 31.84675049 239.90726563 31.27577637 239.125 30.6875 C237.96677734 29.81073608 237.96677734 29.81073608 236.78515625 28.91625977 C229.06746112 23.16261497 221.0809204 18.7695087 212.23828125 15 C209.80620321 13.91341714 207.47920726 12.68319077 205.125 11.4375 C200.59638176 9.12698049 196.08418637 7.76785421 191.15234375 6.578125 C189 6 189 6 188 5 C172.6211071 1.95759669 156.99391288 -0.05511242 141.34814453 1.21533203 Z " fill="#FDFEFD" transform="translate(0,0)"/>
<path d="M0 0 C5.00724055 1.34432703 8.58354012 3.65996293 12.5625 6.875 C13.11357422 7.30941406 13.66464844 7.74382813 14.23242188 8.19140625 C15.31444095 9.04623982 16.39223545 9.90645317 17.46533203 10.77246094 C18.92404302 11.93924408 20.4125713 13.06845905 21.90234375 14.1953125 C22.94068359 15.08863281 22.94068359 15.08863281 24 16 C24 16.66 24 17.32 24 18 C24.5775 18.2475 25.155 18.495 25.75 18.75 C28.32939979 20.18299988 30.06121592 21.78424676 32 24 C32 24.66 32 25.32 32 26 C32.56203125 26.21011719 33.1240625 26.42023437 33.703125 26.63671875 C36.78643481 28.46677848 38.64145406 30.98324919 40.75 33.8125 C41.18610596 34.3914502 41.62221191 34.97040039 42.0715332 35.56689453 C56.2933705 54.73511953 65.37667776 75.96119578 69.375 99.4375 C69.62672974 100.91077759 69.62672974 100.91077759 69.88354492 102.41381836 C70.93924044 109.16901625 71 114.9335329 71 122 C46.91 122 22.82 122 -2 122 C-2.99 116.06 -3.98 110.12 -5 104 C-6.51611335 99.44732154 -6.51611335 99.44732154 -8.23046875 94.96875 C-9 93 -9 93 -9 91 C-15.32405743 95.60083543 -21.01262735 100.73182064 -26.69042969 106.08740234 C-31.14258582 110.26445222 -35.77721166 114.13242647 -40.54296875 117.94921875 C-43.58694103 120.48989514 -46.33241383 123.24538267 -49.09375 126.0859375 C-63.02938903 140.0786898 -63.02938903 140.0786898 -72.8125 140.3125 C-78.06464595 140.25548032 -81.06847047 139.73495305 -85 136 C-89.08202469 130.59407541 -90.45191442 126.77871634 -90 120 C-88.20986152 113.99777097 -85.26833046 110.27441896 -80 107 C-74.37841933 104.65688547 -68.6175713 102.82973816 -62.8125 101 C-61.18220486 100.47270868 -59.55232279 99.94413857 -57.92285156 99.41430664 C-48.6514894 96.41397004 -39.35347529 93.47954793 -29.98754883 90.78710938 C-26.47967684 89.77750878 -23.07541028 88.67151091 -19.671875 87.34765625 C-16 86 -16 86 -13 86 C-14.26450541 84.20386168 -15.53683488 82.41322966 -16.8125 80.625 C-17.52019531 79.62726563 -18.22789062 78.62953125 -18.95703125 77.6015625 C-20.91242339 74.83319352 -20.91242339 74.83319352 -24 73 C-24 72.34 -24 71.68 -24 71 C-24.56203125 70.74476562 -25.1240625 70.48953125 -25.703125 70.2265625 C-28.29386482 68.84307219 -30.45107845 67.20061417 -32.75 65.375 C-33.94882813 64.42753906 -33.94882813 64.42753906 -35.171875 63.4609375 C-35.77515625 62.97882813 -36.3784375 62.49671875 -37 62 C-35.22633769 56.91618885 -32.46362463 52.43505971 -29.75 47.8125 C-29.25709473 46.96695557 -28.76418945 46.12141113 -28.25634766 45.25024414 C-25.21830719 40.04796247 -22.15356455 34.86236482 -19.0234375 29.71484375 C-17.95785923 27.97768097 -17.95785923 27.97768097 -17 26 C-16.34 26 -15.68 26 -15 26 C-14.90074219 25.45730469 -14.80148438 24.91460937 -14.69921875 24.35546875 C-12.33280097 16.38368147 -5.93994272 5.93994272 0 0 Z " fill="#4EB303" transform="translate(224,22)"/>
<path d="M0 0 C3.01146092 1.82059335 4.54111541 4.63839342 6.32421875 7.578125 C6.71746338 8.20614014 7.11070801 8.83415527 7.51586914 9.48120117 C10.28325772 13.96486169 12.73011235 18.54922813 14.9140625 23.34765625 C15.76034998 25.31616767 15.76034998 25.31616767 17.88671875 26.140625 C18.5656112 27.80234919 19.23042703 29.46984572 19.88671875 31.140625 C20.87215229 32.64360719 21.89383582 34.12340799 22.94921875 35.578125 C25.36839887 39.09800264 26.66307161 41.77950575 26.88671875 46.140625 C28.37171875 46.635625 28.37171875 46.635625 29.88671875 47.140625 C30.94921875 48.84765625 30.94921875 48.84765625 31.88671875 50.953125 C33.02477756 53.41818674 33.98308789 55.26025566 35.69921875 57.390625 C36.88671875 59.140625 36.88671875 59.140625 36.8515625 60.9140625 C35.36160711 64.35242109 32.51143514 66.25107817 29.63671875 68.515625 C26.12973186 71.30545277 22.89886088 73.97988488 20.08984375 77.4921875 C19.3628125 78.36617188 18.63578125 79.24015625 17.88671875 80.140625 C17.22671875 80.140625 16.56671875 80.140625 15.88671875 80.140625 C15.61730469 80.84703125 15.34789063 81.5534375 15.0703125 82.28125 C13.84299975 85.24624319 12.42907009 88.04388807 10.94921875 90.890625 C6.610154 99.58986917 4.54500072 107.19777977 3.53222656 116.82128906 C2.978681 122.04866275 2.978681 122.04866275 1.88671875 123.140625 C-0.35258011 123.23499029 -2.59489875 123.25804827 -4.83618164 123.25415039 C-5.53858475 123.25429642 -6.24098785 123.25444244 -6.9646759 123.2545929 C-9.29679403 123.25389372 -11.62883325 123.24610117 -13.9609375 123.23828125 C-15.57376563 123.23641708 -17.18659432 123.23499318 -18.79942322 123.23399353 C-23.05243482 123.23016823 -27.30541249 123.22033785 -31.55841064 123.20928955 C-35.89505555 123.19907569 -40.23170592 123.19449596 -44.56835938 123.18945312 C-53.08334894 123.17871559 -61.59831088 123.16163903 -70.11328125 123.140625 C-70.12937853 120.42144421 -70.14112418 117.70235991 -70.15039062 114.9831543 C-70.1553656 114.21825432 -70.16034058 113.45335434 -70.16546631 112.66527557 C-70.18002169 106.96521576 -69.77184232 101.54507427 -68.61328125 95.953125 C-68.351521 94.65411255 -68.351521 94.65411255 -68.08447266 93.32885742 C-61.34260934 62.1680211 -43.06565444 28.47554929 -16.11328125 10.140625 C-15.45328125 10.140625 -14.79328125 10.140625 -14.11328125 10.140625 C-14.11328125 9.480625 -14.11328125 8.820625 -14.11328125 8.140625 C-11.62890625 6.16015625 -11.62890625 6.16015625 -8.36328125 3.953125 C-7.2959375 3.21707031 -6.22859375 2.48101563 -5.12890625 1.72265625 C-2.11328125 0.140625 -2.11328125 0.140625 0 0 Z " fill="#EF5829" transform="translate(78.11328125,21.859375)"/>
<path d="M0 0 C0.845625 0.2475 1.69125 0.495 2.5625 0.75 C3.23104004 0.85578369 3.89958008 0.96156738 4.58837891 1.07055664 C6.5625 1.75 6.5625 1.75 7.74755859 3.32202148 C8.06547363 3.99821533 8.38338867 4.67440918 8.7109375 5.37109375 C9.07356689 6.13188232 9.43619629 6.8926709 9.80981445 7.67651367 C10.3680188 8.9194519 10.3680188 8.9194519 10.9375 10.1875 C11.52567505 11.47587769 11.52567505 11.47587769 12.12573242 12.7902832 C20.89353153 32.39872792 25.5625 52.1935584 25.5625 73.75 C1.4725 73.75 -22.6175 73.75 -47.4375 73.75 C-48.4275 67.81 -49.4175 61.87 -50.4375 55.75 C-51.95361335 51.19732154 -51.95361335 51.19732154 -53.66796875 46.71875 C-54.4375 44.75 -54.4375 44.75 -54.4375 42.75 C-60.76155743 47.35083543 -66.45012735 52.48182064 -72.12792969 57.83740234 C-76.58008582 62.01445222 -81.21471166 65.88242647 -85.98046875 69.69921875 C-89.02444103 72.23989514 -91.76991383 74.99538267 -94.53125 77.8359375 C-108.46688903 91.8286898 -108.46688903 91.8286898 -118.25 92.0625 C-123.50214595 92.00548032 -126.50597047 91.48495305 -130.4375 87.75 C-134.51952469 82.34407541 -135.88941442 78.52871634 -135.4375 71.75 C-133.64736152 65.74777097 -130.70583046 62.02441896 -125.4375 58.75 C-119.81592756 56.4068889 -114.05510506 54.57961257 -108.25 52.75 C-106.61458264 52.22122967 -104.97957383 51.69119415 -103.3449707 51.15991211 C-93.47310631 47.96627479 -83.56457681 44.8933436 -73.6015625 41.99609375 C-68.16950423 40.40297727 -62.83695946 38.52768504 -57.50390625 36.6328125 C-54.57389012 35.78926645 -52.45557594 35.40833103 -49.4375 35.75 C-47.9525 36.74 -47.9525 36.74 -46.4375 37.75 C-46.4375 39.07 -46.4375 40.39 -46.4375 41.75 C-45.1175 41.42 -43.7975 41.09 -42.4375 40.75 C-42.1075 41.74 -41.7775 42.73 -41.4375 43.75 C-34.16475045 46.66984773 -22.90411068 46.84568639 -15.6875 43.9375 C-14.25349163 43.24305888 -12.83449488 42.5161813 -11.4375 41.75 C-10.71175781 41.4096875 -9.98601562 41.069375 -9.23828125 40.71875 C-6.82132644 39.41852268 -6.46523306 38.28507487 -5.4375 35.75 C-4.633125 34.326875 -4.633125 34.326875 -3.8125 32.875 C-1.42163797 27.1689736 -1.64398648 20.78487916 -2.4375 14.75 C-3.58803045 12.30230286 -4.78682096 10.44735486 -6.5390625 8.3984375 C-6.98378906 7.58246094 -6.98378906 7.58246094 -7.4375 6.75 C-6.05016698 2.96828511 -4.37100143 -0.44830784 0 0 Z " fill="#4EB403" transform="translate(269.4375,70.25)"/>
<path d="M0 0 C3.01146092 1.82059335 4.54111541 4.63839342 6.32421875 7.578125 C6.71746338 8.20614014 7.11070801 8.83415527 7.51586914 9.48120117 C10.28325772 13.96486169 12.73011235 18.54922813 14.9140625 23.34765625 C15.76034998 25.31616767 15.76034998 25.31616767 17.88671875 26.140625 C18.5656112 27.80234919 19.23042703 29.46984572 19.88671875 31.140625 C20.87215229 32.64360719 21.89383582 34.12340799 22.94921875 35.578125 C25.36839887 39.09800264 26.66307161 41.77950575 26.88671875 46.140625 C28.37171875 46.635625 28.37171875 46.635625 29.88671875 47.140625 C30.94921875 48.84765625 30.94921875 48.84765625 31.88671875 50.953125 C33.02477756 53.41818674 33.98308789 55.26025566 35.69921875 57.390625 C36.88671875 59.140625 36.88671875 59.140625 36.8515625 60.9140625 C35.36160711 64.35242109 32.51143514 66.25107817 29.63671875 68.515625 C26.12973186 71.30545277 22.89886088 73.97988488 20.08984375 77.4921875 C19.3628125 78.36617188 18.63578125 79.24015625 17.88671875 80.140625 C17.22671875 80.140625 16.56671875 80.140625 15.88671875 80.140625 C15.63921875 80.841875 15.39171875 81.543125 15.13671875 82.265625 C13.71025526 85.54649102 12.03269495 88.2793234 9.88671875 91.140625 C6.98343807 92.10838523 4.96419086 92.140625 1.88671875 92.140625 C1.05493621 85.82357384 0.65001252 81.19288891 2.88671875 75.140625 C3.72422396 68.97139645 2.56002432 64.49744534 -0.23828125 58.98828125 C-1.11328125 57.140625 -1.11328125 57.140625 -1.11328125 55.140625 C-1.67015625 54.8725 -2.22703125 54.604375 -2.80078125 54.328125 C-4.39383441 53.51007067 -5.9562358 52.63041567 -7.48828125 51.703125 C-8.35453125 51.1875 -9.22078125 50.671875 -10.11328125 50.140625 C-11.00015625 49.604375 -11.88703125 49.068125 -12.80078125 48.515625 C-17.19392758 46.69205483 -21.39794722 46.41087142 -26.11328125 46.140625 C-25.12328125 45.480625 -24.13328125 44.820625 -23.11328125 44.140625 C-24.66789062 44.19283203 -24.66789062 44.19283203 -26.25390625 44.24609375 C-27.62368167 44.27423982 -28.99347466 44.30153911 -30.36328125 44.328125 C-31.04519531 44.35326172 -31.72710937 44.37839844 -32.4296875 44.40429688 C-35.70527414 44.45199959 -37.76676681 44.35147576 -40.59765625 42.62890625 C-41.0978125 42.13777344 -41.59796875 41.64664063 -42.11328125 41.140625 C-41.72752648 35.81878371 -39.81099345 33.06881387 -36.17578125 29.390625 C-35.68650146 28.87765869 -35.19722168 28.36469238 -34.69311523 27.83618164 C-33.17948763 26.25777126 -31.64848573 24.69802877 -30.11328125 23.140625 C-29.17568017 22.17587948 -28.23817617 21.21103959 -27.30078125 20.24609375 C-19.70926814 12.5303148 -19.70926814 12.5303148 -16.11328125 10.140625 C-15.45328125 10.140625 -14.79328125 10.140625 -14.11328125 10.140625 C-14.11328125 9.480625 -14.11328125 8.820625 -14.11328125 8.140625 C-11.62890625 6.16015625 -11.62890625 6.16015625 -8.36328125 3.953125 C-7.2959375 3.21707031 -6.22859375 2.48101563 -5.12890625 1.72265625 C-2.11328125 0.140625 -2.11328125 0.140625 0 0 Z " fill="#F05627" transform="translate(78.11328125,21.859375)"/>
<path d="M0 0 C-0.10965657 3.87453219 -1.42688242 5.70370349 -4.09765625 8.3046875 C-5.40875096 9.5063712 -6.73098652 10.69598139 -8.0625 11.875 C-8.75206787 12.50067871 -9.44163574 13.12635742 -10.15209961 13.77099609 C-12.09148198 15.52548991 -14.04310639 17.26508881 -16 19 C-16.7528125 19.67546875 -17.505625 20.3509375 -18.28125 21.046875 C-20.64177182 23.13821451 -23.03721784 25.1858636 -25.4453125 27.22216797 C-27.15313625 28.66649597 -28.85841068 30.11376779 -30.5625 31.5625 C-31.15562988 32.06604004 -31.74875977 32.56958008 -32.35986328 33.08837891 C-37.66907082 37.63489103 -42.75844477 42.39921938 -47.76196289 47.27954102 C-53.17106506 52.45525363 -58.20205175 56.58285057 -66.0625 56.5 C-71.15381391 56.30931409 -74.2006483 55.60938411 -78 52 C-82.08202469 46.59407541 -83.45191442 42.77871634 -83 36 C-81.20986152 29.99777097 -78.26833046 26.27441896 -73 23 C-67.37842756 20.6568889 -61.61760506 18.82961257 -55.8125 17 C-54.17708264 16.47122967 -52.54207383 15.94119415 -50.9074707 15.40991211 C-41.03912641 12.21741357 -31.13340655 9.14851584 -21.17578125 6.24609375 C-15.65230613 4.62503183 -10.21441825 2.75941974 -4.7734375 0.8828125 C-2 0 -2 0 0 0 Z " fill="#272727" transform="translate(217,106)"/>
<path d="M0 0 C4.73325966 3.26431701 8.96658966 7.99641479 11.0390625 13.40625 C11.88332517 21.37766036 11.95765896 28.79989985 7.0390625 35.40625 C3.04452439 40.15651154 -2.59463483 44.63457695 -8.9609375 45.40625 C-16.5415356 45.91162321 -21.81533813 44.50331624 -28.1484375 40.28125 C-33.8105545 35.1915328 -36.64364338 28.15032065 -37.2734375 20.71875 C-37.14731138 13.93316485 -34.2237479 8.42600775 -29.6484375 3.53125 C-21.37523289 -3.99143183 -9.95355545 -5.06726459 0 0 Z " fill="#4FB307" transform="translate(256.9609375,71.59375)"/>
<path d="M0 0 C1.1888529 0.71431078 2.35868884 1.46195182 3.5 2.25 C4.4075 2.86875 5.315 3.4875 6.25 4.125 C10.78406928 8.40717655 13.26080335 12.61754859 13.66796875 18.80078125 C13.70735129 24.36947275 13.36899234 28.99345905 11.5 34.25 C10.84 34.25 10.18 34.25 9.5 34.25 C9.2525 34.8275 9.005 35.405 8.75 36 C5.97437388 40.99612701 1.60695005 44.35061972 -3.875 45.9375 C-11.86840922 46.88909634 -19.31998709 46.02002273 -25.8125 40.9375 C-31.4774446 35.2725554 -34.4444254 29.55519829 -35 21.5625 C-34.82719407 14.40185411 -31.55859741 8.18763593 -26.42578125 3.2578125 C-18.9419042 -2.52455461 -8.79714772 -4.28924029 0 0 Z " fill="#F8B606" transform="translate(161.5,15.75)"/>
<path d="M0 0 C1.18664615 0.71797078 2.35614802 1.46564436 3.5 2.25 C4.86125 3.11625 4.86125 3.11625 6.25 4 C10.784601 8.534601 13.59387294 14.95426857 13.8125 21.375 C13.70163118 28.96335479 10.24545219 35.34796208 5.1015625 40.80859375 C-0.74717878 46.0724609 -7.32350568 45.82142281 -14.890625 45.671875 C-19.83837507 45.09356655 -22.83662881 43.5327612 -26.5 40.25 C-27.2425 39.651875 -27.985 39.05375 -28.75 38.4375 C-33.82136708 32.09829115 -35.22887982 26.60423882 -34.9453125 18.4375 C-33.91130498 11.03618303 -29.9775434 6.10523051 -24.34375 1.44140625 C-17.34782836 -3.07926346 -7.52594868 -3.64112565 0 0 Z " fill="#EE5728" transform="translate(68.5,70.75)"/>
<path d="M0 0 C1.1888529 0.71431078 2.35868884 1.46195182 3.5 2.25 C4.4075 2.86875 5.315 3.4875 6.25 4.125 C10.78406928 8.40717655 13.26080335 12.61754859 13.66796875 18.80078125 C13.70735129 24.36947275 13.36899234 28.99345905 11.5 34.25 C10.84 34.25 10.18 34.25 9.5 34.25 C9.2525 34.8275 9.005 35.405 8.75 36 C5.97437388 40.99612701 1.60695005 44.35061972 -3.875 45.9375 C-11.86840922 46.88909634 -19.31998709 46.02002273 -25.8125 40.9375 C-31.4774446 35.2725554 -34.4444254 29.55519829 -35 21.5625 C-34.82719407 14.40185411 -31.55859741 8.18763593 -26.42578125 3.2578125 C-18.9419042 -2.52455461 -8.79714772 -4.28924029 0 0 Z M-27.5 9.25 C-30.77956491 14.06002854 -31.28726849 18.58772275 -30.5 24.25 C-29.15253476 27.70346148 -29.15253476 27.70346148 -27.5 30.25 C-26.36691406 30.00443359 -26.36691406 30.00443359 -25.2109375 29.75390625 C-20.16869881 29.06922331 -15.20640205 29.14488179 -10.125 29.1875 C-8.59166016 29.19426758 -8.59166016 29.19426758 -7.02734375 29.20117188 C-4.51816806 29.212897 -2.0091151 29.22930824 0.5 29.25 C0.83 30.24 1.16 31.23 1.5 32.25 C-6.42 32.58 -14.34 32.91 -22.5 33.25 C-22.17 34.24 -21.84 35.23 -21.5 36.25 C-19.48491642 36.98323796 -19.48491642 36.98323796 -17.5 37.25 C-18.16 37.25 -18.82 37.25 -19.5 37.25 C-19.5 38.57 -19.5 39.89 -19.5 41.25 C-14.70031595 43.64984202 -7.46069149 42.82219038 -2.296875 41.82421875 C3.28543324 39.77485784 7.14372293 35.08753531 9.64453125 29.85546875 C11.54766412 24.05916908 11.44350247 17.55971808 9 11.9375 C6.08494474 6.895803 1.47550105 3.29142537 -4 1.375 C-4.825 1.33375 -5.65 1.2925 -6.5 1.25 C-7.77875 1.1675 -9.0575 1.085 -10.375 1 C-17.38913415 1.11866016 -22.57868689 4.44053492 -27.5 9.25 Z " fill="#FAF3D4" transform="translate(161.5,15.75)"/>
<path d="M0 0 C4.73325966 3.26431701 8.96658966 7.99641479 11.0390625 13.40625 C11.88332517 21.37766036 11.95765896 28.79989985 7.0390625 35.40625 C3.04452439 40.15651154 -2.59463483 44.63457695 -8.9609375 45.40625 C-16.5415356 45.91162321 -21.81533813 44.50331624 -28.1484375 40.28125 C-33.8105545 35.1915328 -36.64364338 28.15032065 -37.2734375 20.71875 C-37.14731138 13.93316485 -34.2237479 8.42600775 -29.6484375 3.53125 C-21.37523289 -3.99143183 -9.95355545 -5.06726459 0 0 Z M-28.3359375 6.84375 C-33.5629922 13.37026802 -33.62684983 19.18991638 -32.9609375 27.40625 C-31.8950884 30.87777779 -31.8950884 30.87777779 -29.9609375 33.40625 C-29.3628125 34.293125 -28.7646875 35.18 -28.1484375 36.09375 C-23.74739365 40.74628207 -19.85171942 41.62643964 -13.5859375 41.84375 C-7.00311461 41.67130703 -2.29068267 40.52254997 2.5625 35.98046875 C7.36847502 30.60499958 8.47498554 25.91601598 8.27734375 18.89453125 C7.71383408 13.01001223 5.41374724 9.49063072 1.1640625 5.59375 C-7.76400588 -1.63296233 -20.28807278 -2.23689155 -28.3359375 6.84375 Z " fill="#E5F6D8" transform="translate(256.9609375,71.59375)"/>
<path d="M0 0 C1.18664615 0.71797078 2.35614802 1.46564436 3.5 2.25 C4.86125 3.11625 4.86125 3.11625 6.25 4 C10.784601 8.534601 13.59387294 14.95426857 13.8125 21.375 C13.70163118 28.96335479 10.24545219 35.34796208 5.1015625 40.80859375 C-0.74717878 46.0724609 -7.32350568 45.82142281 -14.890625 45.671875 C-19.83837507 45.09356655 -22.83662881 43.5327612 -26.5 40.25 C-27.2425 39.651875 -27.985 39.05375 -28.75 38.4375 C-33.82136708 32.09829115 -35.22887982 26.60423882 -34.9453125 18.4375 C-33.91130498 11.03618303 -29.9775434 6.10523051 -24.34375 1.44140625 C-17.34782836 -3.07926346 -7.52594868 -3.64112565 0 0 Z M-27.5 8.25 C-31.53917703 14.81036269 -32.538144 20.83754053 -31.09765625 28.34765625 C-29.373595 34.19594244 -25.51751871 37.92745882 -20.5 41.25 C-14.75238055 43.27231055 -7.58112112 43.30586425 -1.85546875 41.34375 C4.16819336 38.2270293 7.33706344 34.73880968 9.5 28.25 C10.52857588 18.49934044 10.52857588 18.49934044 7 9.6875 C2.94699503 5.29438272 -1.16512625 1.74975053 -7.2109375 0.84375 C-15.2087817 0.58080718 -21.77096037 2.36612146 -27.5 8.25 Z " fill="#F8EBE2" transform="translate(68.5,70.75)"/>
<path d="M0 0 C2.89357127 2.59679473 3.86089908 4.16539447 4.5 8 C3.88466097 11.69203416 2.58383614 13.34016868 0 16 C-2.88861709 17.44430855 -4.79647701 17.37688506 -8 17 C-10.86972996 15.00366611 -12.65210765 13.52770117 -13.44921875 10.02734375 C-13.64251389 6.46138164 -13.30890556 4.40157722 -11.125 1.5625 C-7.09518909 -1.40059626 -4.89516833 -1.18159236 0 0 Z " fill="#F4F4F4" transform="translate(156,137)"/>
<path d="M0 0 C9.07503724 -0.04631059 18.1500339 -0.08186267 27.22516346 -0.10362434 C31.43896975 -0.11406808 35.65269527 -0.12823799 39.86645508 -0.15087891 C43.93185407 -0.17258633 47.99717532 -0.18456419 52.06262779 -0.18975449 C53.61479606 -0.19345403 55.16696 -0.20067819 56.71909523 -0.21146011 C58.89070506 -0.22594726 61.06199231 -0.22797913 63.23364258 -0.22705078 C64.47052322 -0.231492 65.70740387 -0.23593323 66.98176575 -0.24050903 C70 -0 70 -0 73 2 C72.01 2 71.02 2 70 2 C70 2.66 70 3.32 70 4 C70.99 4.33 71.98 4.66 73 5 C69.08762579 4.51960892 65.18293092 4.02632514 61.28125 3.46484375 C43.42598221 0.97469793 26.76587682 2.48516469 9 5 C8.25121582 5.10586426 7.50243164 5.21172852 6.73095703 5.32080078 C5.15368832 5.54522019 3.57678652 5.77221737 2 6 C2 5.34 2 4.68 2 4 C1.01 3.67 0.02 3.34 -1 3 C-0.67 2.01 -0.34 1.02 0 0 Z " fill="#FBF9ED" transform="translate(111,0)"/>
<path d="M0 0 C0.99 0 1.98 0 3 0 C3.02690104 2.79173055 3.04679053 5.58320348 3.0625 8.375 C3.07087891 9.1690625 3.07925781 9.963125 3.08789062 10.78125 C3.11328125 16.7734375 3.11328125 16.7734375 2 19 C-21.76 18.67 -45.52 18.34 -70 18 C-70 18.66 -70 19.32 -70 20 C-70.66 20 -71.32 20 -72 20 C-73.26237731 17.47524538 -73.09856404 15.68799534 -73.0625 12.875 C-73.05347656 11.96492187 -73.04445312 11.05484375 -73.03515625 10.1171875 C-73.02355469 9.41851562 -73.01195312 8.71984375 -73 8 C-72.67 8 -72.34 8 -72 8 C-72 10.64 -72 13.28 -72 16 C-47.91 16 -23.82 16 1 16 C0.67 10.72 0.34 5.44 0 0 Z " fill="#D4ECC6" transform="translate(294,128)"/>
<path d="M0 0 C4.86044165 2.62697831 8.07030104 5.58807294 10.35546875 10.6640625 C11.56747847 15.05667955 11.29850179 19.48930627 11 24 C10.67 24 10.34 24 10 24 C9.95101562 23.39671875 9.90203125 22.7934375 9.8515625 22.171875 C9.77679688 21.37265625 9.70203125 20.5734375 9.625 19.75 C9.55539063 18.96109375 9.48578125 18.1721875 9.4140625 17.359375 C8.98492887 14.914123 8.21399362 13.15163097 7 11 C6.01 11.33 5.02 11.66 4 12 C3.67 12.99 3.34 13.98 3 15 C1.68 15 0.36 15 -1 15 C-1 14.34 -1 13.68 -1 13 C-1.99 13 -2.98 13 -4 13 C-4 10.69 -4 8.38 -4 6 C-3.01 6 -2.02 6 -1 6 C-1 4.68 -1 3.36 -1 2 C-2.216875 2.020625 -3.43375 2.04125 -4.6875 2.0625 C-7.27394186 2.0807465 -9.21729223 1.94567694 -11.75 1.3125 C-14.1279591 0.73769403 -14.1279591 0.73769403 -16.3125 2.4375 C-16.869375 2.953125 -17.42625 3.46875 -18 4 C-18.99 3.01 -19.98 2.02 -21 1 C-13.81574923 -2.59212539 -7.62053009 -3.4049177 0 0 Z " fill="#F4B814" transform="translate(161,19)"/>
<path d="M0 0 C0.33 0 0.66 0 1 0 C1.268125 1.11375 1.53625 2.2275 1.8125 3.375 C2.65809019 7.21840951 2.65809019 7.21840951 6 9 C8.81154715 9.27648554 8.81154715 9.27648554 11.98046875 9.1953125 C13.14384766 9.18886719 14.30722656 9.18242188 15.50585938 9.17578125 C16.72080078 9.15902344 17.93574219 9.14226563 19.1875 9.125 C21.02731445 9.11146484 21.02731445 9.11146484 22.90429688 9.09765625 C25.93639295 9.07406017 28.96809938 9.04113841 32 9 C32.495 10.98 32.495 10.98 33 13 C30.49502996 14.25248502 28.79146726 14.11374406 25.9921875 14.09765625 C25.00605469 14.09443359 24.01992187 14.09121094 23.00390625 14.08789062 C21.97136719 14.07951172 20.93882812 14.07113281 19.875 14.0625 C18.31458984 14.05573242 18.31458984 14.05573242 16.72265625 14.04882812 C14.14838038 14.03701952 11.57421854 14.02055075 9 14 C9.33 14.66 9.66 15.32 10 16 C11.32 16 12.64 16 14 16 C14 16.66 14 17.32 14 18 C13.34 18 12.68 18 12 18 C12 18.99 12 19.98 12 21 C8.11137013 19.73882275 6.10624401 18.54735833 4 15 C4 14.34 4 13.68 4 13 C3.34 13 2.68 13 2 13 C0.24252386 8.49646738 -0.19294408 4.82360189 0 0 Z " fill="#F6BF35" transform="translate(130,35)"/>
<path d="M0 0 C2.64 0 5.28 0 8 0 C8 0.66 8 1.32 8 2 C9.65 2.33 11.3 2.66 13 3 C13 3.99 13 4.98 13 6 C13.66 6.33 14.32 6.66 15 7 C9.80042571 10.73012938 6.6596014 11.37179105 0.33203125 10.5546875 C-2.02198012 9.9947719 -3.89186174 9.17280335 -6 8 C-4.68 7.67 -3.36 7.34 -2 7 C-2.33 5.02 -2.66 3.04 -3 1 C-1 2 -1 2 0 3 C0 2.01 0 1.02 0 0 Z " fill="#EE592B" transform="translate(56,102)"/>
<path d="M0 0 C3.32278444 1.63993952 6.15290671 3.63796705 9 6 C8.83628906 6.60328125 8.67257813 7.2065625 8.50390625 7.828125 C7.93610349 10.27539893 7.93044706 12.49609419 8 15 C6.02 15 4.04 15 2 15 C1.20046862 11.71303767 0.90341064 10.28976808 2 7 C1.30132812 6.95101562 0.60265625 6.90203125 -0.1171875 6.8515625 C-1.02726562 6.77679688 -1.93734375 6.70203125 -2.875 6.625 C-3.77992187 6.55539063 -4.68484375 6.48578125 -5.6171875 6.4140625 C-8 6 -8 6 -10 4 C-8.68 3.34 -7.36 2.68 -6 2 C-8.64 2 -11.28 2 -14 2 C-9.50523586 -0.99650942 -5.26441706 -0.83895093 0 0 Z " fill="#F05726" transform="translate(64,72)"/>
<path d="M0 0 C0 0.33 0 0.66 0 1 C-2.64 1.33 -5.28 1.66 -8 2 C-8 2.33 -8 2.66 -8 3 C-15.92 3.495 -15.92 3.495 -24 4 C-24 4.33 -24 4.66 -24 5 C-26.64 5 -29.28 5 -32 5 C-32 4.34 -32 3.68 -32 3 C-41.405 3.495 -41.405 3.495 -51 4 C-47.93259095 1.95506063 -46.57205471 1.60938556 -43.01953125 1.1484375 C-42.02759766 1.01920898 -41.03566406 0.88998047 -40.01367188 0.75683594 C-38.95728516 0.63083008 -37.90089844 0.50482422 -36.8125 0.375 C-35.73419922 0.24383789 -34.65589844 0.11267578 -33.54492188 -0.02246094 C-22.3299369 -1.30981014 -11.19149919 -1.86524987 0 0 Z " fill="#F6BD21" transform="translate(168,2)"/>
<path d="M0 0 C1.39649154 5.324124 2 9.47020815 2 15 C4.64 15 7.28 15 10 15 C5.24668435 18.90450928 5.24668435 18.90450928 2 19 C-1.77634114 16.91915897 -4.91023622 14.83123359 -7 11 C-7.3125 8.375 -7.3125 8.375 -7 6 C-6.34 5.34 -5.68 4.68 -5 4 C-5 3.34 -5 2.68 -5 2 C-1.125 0 -1.125 0 0 0 Z " fill="#2A2A2A" transform="translate(143,143)"/>
<path d="M0 0 C1.32 0 2.64 0 4 0 C4 0.66 4 1.32 4 2 C5.10859375 1.90460938 6.2171875 1.80921875 7.359375 1.7109375 C8.82287083 1.5983609 10.28641526 1.48641476 11.75 1.375 C12.47960937 1.31054688 13.20921875 1.24609375 13.9609375 1.1796875 C17.85911736 0.89618351 20.70645322 0.72918617 24 3 C24 3.66 24 4.32 24 5 C18.42531458 8.61601216 13.39432346 8.30720059 7 8 C6.67 7.34 6.34 6.68 6 6 C5.01 5.67 4.02 5.34 3 5 C3 4.34 3 3.68 3 3 C1.68 3 0.36 3 -1 3 C-0.67 2.01 -0.34 1.02 0 0 Z " fill="#4CB205" transform="translate(232,105)"/>
<path d="M0 0 C3.1744176 1.09462676 3.98914157 1.98177335 5.75 4.9375 C7 8 7 8 7 11 C7.928125 10.649375 8.85625 10.29875 9.8125 9.9375 C13 9 13 9 16 10 C16 11.32 16 12.64 16 14 C16.66 14 17.32 14 18 14 C18 13.01 18 12.02 18 11 C20.875 10.8125 20.875 10.8125 24 11 C24.99 12.485 24.99 12.485 26 14 C21.05 15.98 16.1 17.96 11 20 C8.47518495 15.58157366 6.15785712 11.3687921 4.02734375 6.796875 C3.05584919 4.91253468 3.05584919 4.91253468 1.37890625 3.390625 C0 2 0 2 0 0 Z " fill="#F9B50C" transform="translate(104,64)"/>
<path d="M0 0 C3.875 1.875 3.875 1.875 5 3 C7.22831353 3.23875423 7.22831353 3.23875423 9.8125 3.25 C10.68519531 3.27578125 11.55789062 3.3015625 12.45703125 3.328125 C15.4559872 2.94116294 16.64104046 1.80012846 19 0 C19.99 0.33 20.98 0.66 22 1 C21.9375 2.75 21.9375 2.75 21 5 C16.75438257 8.11922913 13.30937035 9.71116312 8 9.47265625 C4.30635655 8.59974442 1.88271043 6.40225869 -1 4 C-0.67 2.68 -0.34 1.36 0 0 Z " fill="#E5F6D7" transform="translate(234,98)"/>
<path d="M0 0 C1.42018178 1.86866024 2.82313244 3.73804152 4.13671875 5.68359375 C6.71981074 9.47267191 9.21753686 12.29824062 13 15 C11.25 15.75 11.25 15.75 9 16 C7.6256709 14.70896357 6.29103643 13.3743291 5 12 C4.01 12 3.02 12 2 12 C1.67 10.68 1.34 9.36 1 8 C0.01 8.495 0.01 8.495 -1 9 C-1 8.01 -1 7.02 -1 6 C-3.97 6.66 -6.94 7.32 -10 8 C-13 4.25 -13 4.25 -13 2 C-12.01 2 -11.02 2 -10 2 C-9.01 3.485 -9.01 3.485 -8 5 C-7.34 5 -6.68 5 -6 5 C-5.67 3.68 -5.34 2.36 -5 1 C-3.35 0.67 -1.7 0.34 0 0 Z " fill="#5AB518" transform="translate(221,100)"/>
<path d="M0 0 C3.31217963 1.34940652 5.4792773 2.4792773 8 5 C8 5.99 8 6.98 8 8 C5.525 7.505 5.525 7.505 3 7 C3 6.34 3 5.68 3 5 C1.41753293 4.91846067 -0.16616273 4.86056443 -1.75 4.8125 C-2.63171875 4.77769531 -3.5134375 4.74289063 -4.421875 4.70703125 C-7.48300777 5.05488725 -8.60733988 6.14714734 -11 8 C-12.32 8 -13.64 8 -15 8 C-14.76793596 4.75110346 -13.93662944 3.94435756 -11.4375 1.75 C-7.33760234 -0.33722062 -4.50347811 -0.76254111 0 0 Z " fill="#F7EADD" transform="translate(61,97)"/>
<path d="M0 0 C0 0.33 0 0.66 0 1 C-1.98 1 -3.96 1 -6 1 C-6 1.99 -6 2.98 -6 4 C-8 3 -8 3 -9 2 C-9 2.99 -9 3.98 -9 5 C-8.01 5.33 -7.02 5.66 -6 6 C-6.66 6 -7.32 6 -8 6 C-7.67 6.99 -7.34 7.98 -7 9 C-8.32 9 -9.64 9 -11 9 C-8.69 9.66 -6.38 10.32 -4 11 C-4 11.33 -4 11.66 -4 12 C-10.02690296 12.08645148 -14.01843344 11.53222583 -18.625 7.4375 C-19.77060694 6.31226946 -20.90346796 5.1731055 -22 4 C-21.34 3.34 -20.68 2.68 -20 2 C-20 2.66 -20 3.32 -20 4 C-14.61270036 3.7646709 -14.61270036 3.7646709 -10 1.4375 C-6.8172906 -0.85007238 -3.8468064 -0.19234032 0 0 Z " fill="#E76033" transform="translate(62,101)"/>
<path d="M0 0 C7.26 0 14.52 0 22 0 C22.33 1.32 22.66 2.64 23 4 C15.41 4 7.82 4 0 4 C0 2.68 0 1.36 0 0 Z " fill="#FAF3D9" transform="translate(140,44)"/>
<path d="M0 0 C0 0.66 0 1.32 0 2 C0.66 2.33 1.32 2.66 2 3 C-5.94746236 6.64801551 -11.88330714 8.58781991 -20.4375 5.625 C-24 4 -24 4 -25 2 C-24.16807129 2.01571045 -24.16807129 2.01571045 -23.31933594 2.03173828 C-20.79627041 2.07342004 -18.27327747 2.09936438 -15.75 2.125 C-14.87730469 2.14175781 -14.00460938 2.15851563 -13.10546875 2.17578125 C-11.83896484 2.18544922 -11.83896484 2.18544922 -10.546875 2.1953125 C-9.38430176 2.21102295 -9.38430176 2.21102295 -8.19824219 2.22705078 C-5.13495634 1.91065187 -3.03622212 0 0 0 Z " fill="#E7F5DE" transform="translate(256,110)"/>
<path d="M0 0 C5.875 4.25 5.875 4.25 7 11 C12.94 11.33 18.88 11.66 25 12 C25 12.33 25 12.66 25 13 C21.02084841 13.02886984 17.04172347 13.04675406 13.0625 13.0625 C11.35803711 13.07506836 11.35803711 13.07506836 9.61914062 13.08789062 C8.53955078 13.09111328 7.45996094 13.09433594 6.34765625 13.09765625 C4.84730835 13.10551147 4.84730835 13.10551147 3.31665039 13.11352539 C1 13 1 13 0 12 C-0.07244053 9.98035801 -0.08377188 7.95832876 -0.0625 5.9375 C-0.05347656 4.83277344 -0.04445312 3.72804687 -0.03515625 2.58984375 C-0.02355469 1.73519531 -0.01195312 0.88054688 0 0 Z " fill="#FBB303" transform="translate(135,30)"/>
<path d="M0 0 C3.34195203 1.11398401 3.61626428 1.42517048 5.1875 4.375 C7.63132433 9.48565925 7.36718875 14.45137005 7 20 C6.67 20 6.34 20 6 20 C5.95101562 19.39671875 5.90203125 18.7934375 5.8515625 18.171875 C5.77679688 17.37265625 5.70203125 16.5734375 5.625 15.75 C5.55539063 14.96109375 5.48578125 14.1721875 5.4140625 13.359375 C4.98492887 10.914123 4.21399362 9.15163097 3 7 C2.01 7.33 1.02 7.66 0 8 C-0.33 8.99 -0.66 9.98 -1 11 C-2.32 11 -3.64 11 -5 11 C-5.33 9.02 -5.66 7.04 -6 5 C-3.69 4.34 -1.38 3.68 1 3 C0.67 2.01 0.34 1.02 0 0 Z " fill="#F3BC25" transform="translate(165,23)"/>
<path d="M0 0 C3.48539917 0.64544429 6.02819057 2.10134397 9 4 C8.67 5.32 8.34 6.64 8 8 C5.625 8.625 5.625 8.625 3 9 C2.34 8.34 1.68 7.68 1 7 C-1.09291157 7.08571661 -1.09291157 7.08571661 -3 8 C-3.33 8.99 -3.66 9.98 -4 11 C-3.48964169 6.6109185 -2.47785723 3.66291938 0 0 Z " fill="#F4BA21" transform="translate(135,24)"/>
<path d="M0 0 C0.5534764 2.07553648 1 3.84365964 1 6 C3.475 6.99 3.475 6.99 6 8 C3.36095629 9.41377341 0.92879371 10.37240135 -2 11 C-2 12.32 -2 13.64 -2 15 C-5.3 14.34 -8.6 13.68 -12 13 C-9.31158141 10.74754119 -7.35358125 9.11786042 -4 8 C-2.87483915 6.16715557 -2.87483915 6.16715557 -2 4 C-1.33333333 2.66666667 -0.66666667 1.33333333 0 0 Z " fill="#56B512" transform="translate(266,102)"/>
<path d="M0 0 C0.66 0.33 1.32 0.66 2 1 C2.65105005 9.82534507 1.19642854 15.25783976 -4.5625 22 C-7 24 -7 24 -10 24 C-8.91611365 21.56125571 -7.78814964 19.74714634 -6.0625 17.6875 C-1.82317874 12.16353593 -0.59285852 6.75858712 0 0 Z " fill="#F3F9EA" transform="translate(266,88)"/>
<path d="M0 0 C2 3 2 3 2 7 C1.34 7 0.68 7 0 7 C-0.2475 7.5775 -0.495 8.155 -0.75 8.75 C-3.22705683 13.20870229 -6.15384568 15.52333248 -11 17 C-14.55078125 16.9765625 -14.55078125 16.9765625 -18.3125 16.625 C-19.56675781 16.51414062 -20.82101563 16.40328125 -22.11328125 16.2890625 C-23.06589844 16.19367187 -24.01851562 16.09828125 -25 16 C-25 15.67 -25 15.34 -25 15 C-24.28714844 14.96261719 -23.57429687 14.92523438 -22.83984375 14.88671875 C-15.51733253 14.38409685 -9.31341124 13.90465064 -4.1875 8.125 C-2.28867749 5.41239642 -1.01304927 3.13124319 0 0 Z " fill="#FAF3D2" transform="translate(171,43)"/>
<path d="M0 0 C-3 2 -3 2 -6 3 C-4.11525997 4.88474003 -0.97253598 4.69332 1.5625 5.0625 C2.76003906 5.23910156 3.95757812 5.41570312 5.19140625 5.59765625 C6.11824219 5.73042969 7.04507813 5.86320312 8 6 C8 6.33 8 6.66 8 7 C2.39 7 -3.22 7 -9 7 C-9 7.66 -9 8.32 -9 9 C-11.97 8.505 -11.97 8.505 -15 8 C-13.8125 4.5625 -13.8125 4.5625 -12 1 C-8.22297211 -0.57376162 -4.05692518 -0.07954755 0 0 Z " fill="#F25224" transform="translate(61,73)"/>
<path d="M0 0 C3 3.46153846 3 3.46153846 3 6 C4.65 5.34 6.3 4.68 8 4 C6.02 6.31 4.04 8.62 2 11 C0.6078125 10.505 0.6078125 10.505 -0.8125 10 C-3.92029291 8.85032996 -3.92029291 8.85032996 -7 9 C-5.75023244 5.34683329 -5.32901247 4.21934164 -2 2 C-2.66 1.67 -3.32 1.34 -4 1 C-2 0 -2 0 0 0 Z " fill="#212121" transform="translate(202,111)"/>
<path d="M0 0 C2.87941784 2.6007645 4.34408092 4.17944042 5 8 C5.09140921 9.85238076 5.13004661 11.70787209 5.125 13.5625 C5.12757813 14.51253906 5.13015625 15.46257813 5.1328125 16.44140625 C5 19 5 19 4 22 C3.34 22 2.68 22 2 22 C1.92652344 20.60587891 1.92652344 20.60587891 1.8515625 19.18359375 C1.30322854 9.92339067 1.30322854 9.92339067 -1 1 C-0.67 0.67 -0.34 0.34 0 0 Z " fill="#F9F8E9" transform="translate(170,24)"/>
<path d="M0 0 C0.33 0.66 0.66 1.32 1 2 C1.66 2.33 2.32 2.66 3 3 C2.649375 3.78375 2.29875 4.5675 1.9375 5.375 C1.628125 6.24125 1.31875 7.1075 1 8 C1.33 8.66 1.66 9.32 2 10 C1.67 10.99 1.34 11.98 1 13 C1.66 13 2.32 13 3 13 C3 15.64 3 18.28 3 21 C1.05316677 17.39744879 -0.27745319 13.60461063 -1.625 9.75 C-1.96917969 8.77546875 -1.96917969 8.77546875 -2.3203125 7.78125 C-2.88252463 6.18831562 -3.44158003 4.59426771 -4 3 C-2.68 2.01 -1.36 1.02 0 0 Z M4 9 C4.33 9 4.66 9 5 9 C5 10.98 5 12.96 5 15 C3.9375 13.125 3.9375 13.125 3 11 C3.33 10.34 3.66 9.68 4 9 Z " fill="#55AE12" transform="translate(218,109)"/>
<path d="M0 0 C2 1 2 1 3 3 C2.01 3 1.02 3 0 3 C0.495 3.9075 0.99 4.815 1.5 5.75 C3 9 3 9 3 13 C1.33388095 13.042721 -0.33382885 13.04063832 -2 13 C-3 12 -3 12 -3.0625 8.9375 C-3.041875 7.968125 -3.02125 6.99875 -3 6 C-3.66 6 -4.32 6 -5 6 C-5 6.66 -5 7.32 -5 8 C-5.66 7.67 -6.32 7.34 -7 7 C-4.66666667 4.66666667 -2.33333333 2.33333333 0 0 Z " fill="#E66539" transform="translate(47,74)"/>
<path d="M0 0 C0.33 0 0.66 0 1 0 C1.19401633 1.81181405 1.38004375 3.62448532 1.5625 5.4375 C1.71912109 6.95150391 1.71912109 6.95150391 1.87890625 8.49609375 C1.93884766 9.73552734 1.93884766 9.73552734 2 11 C1 12 1 12 -2.96899414 12.11352539 C-4.74105607 12.1133662 -6.5131226 12.10766785 -8.28515625 12.09765625 C-9.21597519 12.0962413 -10.14679413 12.09482635 -11.1058197 12.09336853 C-14.09141191 12.08775172 -17.07693029 12.0751964 -20.0625 12.0625 C-22.08137913 12.05748716 -24.10025943 12.05292388 -26.11914062 12.04882812 C-31.07945572 12.03777683 -36.03971532 12.02050095 -41 12 C-41 11.67 -41 11.34 -41 11 C-27.8 10.67 -14.6 10.34 -1 10 C-0.67 6.7 -0.34 3.4 0 0 Z " fill="#FDFFF4" transform="translate(81,134)"/>
<path d="M0 0 C1.98 0.66 3.96 1.32 6 2 C5.67 4.97 5.34 7.94 5 11 C2.625 11.1875 2.625 11.1875 0 11 C-2 8 -2 8 -1.75 5.375 C-1.5025 4.59125 -1.255 3.8075 -1 3 C-0.34 2.67 0.32 2.34 1 2 C0.67 1.34 0.34 0.68 0 0 Z " fill="#5DB61F" transform="translate(253,77)"/>
<path d="M0 0 C-0.99 0.66 -1.98 1.32 -3 2 C-2.01 2 -1.02 2 0 2 C0 2.66 0 3.32 0 4 C-3.84772049 5.86889281 -5.88375325 6.00124921 -10 5 C-10.99 5.495 -10.99 5.495 -12 6 C-13.53668865 6.22467831 -15.07968054 6.40796805 -16.625 6.5625 C-17.85089844 6.68818359 -17.85089844 6.68818359 -19.1015625 6.81640625 C-20.04128906 6.90728516 -20.04128906 6.90728516 -21 7 C-18.29359165 3.51447409 -14.53997436 2.55048699 -10.5 1.25 C-9.82324219 1.01667969 -9.14648438 0.78335937 -8.44921875 0.54296875 C-3.38016183 -1.12672061 -3.38016183 -1.12672061 0 0 Z " fill="#F4C236" transform="translate(112,8)"/>
<path d="M0 0 C0.66 0.33 1.32 0.66 2 1 C1.67 2.65 1.34 4.3 1 6 C1.99 6 2.98 6 4 6 C4.33 7.65 4.66 9.3 5 11 C3.35 11.33 1.7 11.66 0 12 C-0.33 10.68 -0.66 9.36 -1 8 C-2.32 7.67 -3.64 7.34 -5 7 C-3.70700306 4.11562221 -2.34058637 2.12780579 0 0 Z " fill="#59B71C" transform="translate(232,75)"/>
<path d="M0 0 C0.99 0.99 1.98 1.98 3 3 C2.67 3.99 2.34 4.98 2 6 C1.96125079 7.66621616 1.9549714 9.33394172 2 11 C0.02 11 -1.96 11 -4 11 C-5 6.25 -5 6.25 -5 4 C-3.68 4 -2.36 4 -1 4 C-0.67 2.68 -0.34 1.36 0 0 Z " fill="#E85E31" transform="translate(70,76)"/>
<path d="M0 0 C4.99275057 1.27721526 7.57611908 3.17330957 11 7 C8.375 8.3125 8.375 8.3125 5 9 C2.56483135 7.62336186 1.00561708 6.00561708 -1 4 C-0.67 2.68 -0.34 1.36 0 0 Z " fill="#54B411" transform="translate(224,22)"/>
<path d="M0 0 C1.33895632 1.66215268 2.67130142 3.32963607 4 5 C4.598125 5.680625 5.19625 6.36125 5.8125 7.0625 C7 9 7 9 7 11.0625 C5.59878478 13.7773545 3.66720743 14.63220132 1 16 C1 15.01 1 14.02 1 13 C0.34 12.34 -0.32 11.68 -1 11 C0.65 10.67 2.3 10.34 4 10 C4 9.01 4 8.02 4 7 C2.35 7.66 0.7 8.32 -1 9 C-0.835 8.071875 -0.67 7.14375 -0.5 6.1875 C0.07748388 3.04378647 0.07748388 3.04378647 0 0 Z " fill="#E85C2F" transform="translate(108,72)"/>
<path d="M0 0 C0 0.99 0 1.98 0 3 C-5.00932754 6.00559652 -8.32723489 6.29341888 -14 6 C-14 4.68 -14 3.36 -14 2 C-12.95199219 1.90912109 -12.95199219 1.90912109 -11.8828125 1.81640625 C-10.97273437 1.73261719 -10.06265625 1.64882812 -9.125 1.5625 C-8.22007812 1.48128906 -7.31515625 1.40007812 -6.3828125 1.31640625 C-3.9906624 0.99876009 -2.3900132 0 0 0 Z " fill="#EBF7E2" transform="translate(254,101)"/>
<path d="M0 0 C0.61875 0.33 1.2375 0.66 1.875 1 C3.91018344 2.14193235 3.91018344 2.14193235 6 2 C6 1.34 6 0.68 6 0 C6.66 0 7.32 0 8 0 C6.35821735 4.77609498 3.73453298 8.79382904 1 13 C-1.30143236 9.54785147 -1.13833854 8.76520676 -0.625 4.8125 C-0.51414063 3.91144531 -0.40328125 3.01039062 -0.2890625 2.08203125 C-0.19367188 1.39496094 -0.09828125 0.70789062 0 0 Z " fill="#EDB809" transform="translate(209,32)"/>
<path d="M0 0 C0.99 0.33 1.98 0.66 3 1 C2.67 1.99 2.34 2.98 2 4 C3.32 3.67 4.64 3.34 6 3 C6 2.34 6 1.68 6 1 C6.66 1 7.32 1 8 1 C7.67 2.65 7.34 4.3 7 6 C5.68 5.67 4.36 5.34 3 5 C3.33 5.99 3.66 6.98 4 8 C3.01 8.33 2.02 8.66 1 9 C0.67 9.99 0.34 10.98 0 12 C-1.1671568 8.49852959 -1.13357453 5.67329964 -1 2 C-0.67 1.34 -0.34 0.68 0 0 Z " fill="#1F1F1F" transform="translate(135,140)"/>
<path d="M0 0 C-0.15481795 2.70931419 -0.48172081 4.46584039 -2.40234375 6.4453125 C-3.89771708 7.67679642 -5.4462924 8.8429837 -7 10 C-8 9 -8 9 -8.25 6.625 C-8 4 -8 4 -6.6875 2.25 C-4.52872704 0.65090892 -2.69311682 0 0 0 Z " fill="#2F302C" transform="translate(217,106)"/>
<path d="M0 0 C2.71484375 -0.328125 2.71484375 -0.328125 5.9375 -0.25 C6.99839844 -0.23453125 8.05929688 -0.2190625 9.15234375 -0.203125 C12 0 12 0 15 1 C15 1.66 15 2.32 15 3 C9.39 3 3.78 3 -2 3 C-1.34 2.01 -0.68 1.02 0 0 Z " fill="#F0F9E6" transform="translate(238,69)"/>
<path d="M0 0 C8.05325375 -0.30974053 17.65583981 -0.51337731 24 5 C23.31035156 4.9278125 22.62070313 4.855625 21.91015625 4.78125 C15.90411341 4.18806058 10.0343 3.90107705 4 4 C4.33 3.01 4.66 2.02 5 1 C3.35 1 1.7 1 0 1 C0 0.67 0 0.34 0 0 Z " fill="#F2BB21" transform="translate(168,3)"/>
<path d="M0 0 C2.88329583 3.255334 4.63331529 5.59978344 5 10 C4.67 10.33 4.34 10.66 4 11 C3.71599669 14.10149646 3.5512529 17.20292646 3.37890625 20.3125 C3.25386719 21.199375 3.12882812 22.08625 3 23 C2.34 23.33 1.68 23.66 1 24 C1.03480469 22.35451172 1.03480469 22.35451172 1.0703125 20.67578125 C1.08907921 19.221361 1.10727844 17.76693336 1.125 16.3125 C1.14175781 15.59126953 1.15851563 14.87003906 1.17578125 14.12695312 C1.21453027 9.88393591 0.65839598 6.86726794 -1 3 C-0.67 2.01 -0.34 1.02 0 0 Z " fill="#F4D9C8" transform="translate(76,77)"/>
<path d="M0 0 C5.94 0.33 11.88 0.66 18 1 C18 1.66 18 2.32 18 3 C12.67099269 4.29188056 7.28305817 4.69057861 2 3 C2 2.34 2 1.68 2 1 C1.34 0.67 0.68 0.34 0 0 Z " fill="#F9F8E5" transform="translate(142,58)"/>
<path d="M0 0 C16.8929385 -0.3690205 16.8929385 -0.3690205 24 2 C24 2.33 24 2.66 24 3 C21.36 3 18.72 3 16 3 C16 3.33 16 3.66 16 4 C13.69 4 11.38 4 9 4 C9.99 3.67 10.98 3.34 12 3 C12 2.34 12 1.68 12 1 C8.04 1 4.08 1 0 1 C0 0.67 0 0.34 0 0 Z " fill="#F9EFC6" transform="translate(144,74)"/>
<path d="M0 0 C0.66 0.99 1.32 1.98 2 3 C-1.96 6.96 -5.92 10.92 -10 15 C-10.33 13.68 -10.66 12.36 -11 11 C-10.01 11 -9.02 11 -8 11 C-8.33 10.01 -8.66 9.02 -9 8 C-8.360625 7.71125 -7.72125 7.4225 -7.0625 7.125 C-4.84793921 6.17176549 -4.84793921 6.17176549 -4 4 C-3.01 4 -2.02 4 -1 4 C-0.67 2.68 -0.34 1.36 0 0 Z " fill="#F7EDDD" transform="translate(56,33)"/>
<path d="M0 0 C0.33 1.32 0.66 2.64 1 4 C5.62 4 10.24 4 15 4 C15 4.33 15 4.66 15 5 C14.20335937 5.04898437 13.40671875 5.09796875 12.5859375 5.1484375 C4.61842686 5.70029395 4.61842686 5.70029395 -3 8 C-3 7.34 -3 6.68 -3 6 C-3.66 5.67 -4.32 5.34 -5 5 C-4.34 5 -3.68 5 -3 5 C-2.87625 4.360625 -2.7525 3.72125 -2.625 3.0625 C-2.41875 2.381875 -2.2125 1.70125 -2 1 C-1.34 0.67 -0.68 0.34 0 0 Z " fill="#F4B511" transform="translate(141,9)"/>
<path d="M0 0 C1.07765625 0.00902344 2.1553125 0.01804687 3.265625 0.02734375 C4.08546875 0.03894531 4.9053125 0.05054687 5.75 0.0625 C4.76 0.3925 3.77 0.7225 2.75 1.0625 C2.75 1.7225 2.75 2.3825 2.75 3.0625 C-0.88 3.3925 -4.51 3.7225 -8.25 4.0625 C-8.25 3.4025 -8.25 2.7425 -8.25 2.0625 C-8.91 1.7325 -9.57 1.4025 -10.25 1.0625 C-6.78777385 -0.00473961 -3.60960734 -0.03923486 0 0 Z " fill="#EA6E42" transform="translate(58.25,115.9375)"/>
<path d="M0 0 C0.66 0 1.32 0 2 0 C0.33333333 5 -1.33333333 10 -3 15 C-3.33 15 -3.66 15 -4 15 C-4.125 9.25 -4.125 9.25 -3 7 C-3.66 6.67 -4.32 6.34 -5 6 C-4.34 4.35 -3.68 2.7 -3 1 C-2.34 1.33 -1.68 1.66 -1 2 C-0.67 1.34 -0.34 0.68 0 0 Z " fill="#E55E30" transform="translate(86,113)"/>
<path d="M0 0 C0.66 0.66 1.32 1.32 2 2 C1.89048485 5.17593925 0.73018356 6.31241903 -1.375 8.75 C-4 11 -4 11 -7 11 C-5.47038014 7.55835531 -3.37270934 4.90848242 -1 2 C-0.67 1.34 -0.34 0.68 0 0 Z " fill="#E8F7E0" transform="translate(263,101)"/>
<path d="M0 0 C2.64 0.33 5.28 0.66 8 1 C7.01 1.33 6.02 1.66 5 2 C5 2.66 5 3.32 5 4 C5.99 4.33 6.98 4.66 8 5 C0 4 0 4 -8 3 C-8 2.67 -8 2.34 -8 2 C-5.36 2 -2.72 2 0 2 C0 1.34 0 0.68 0 0 Z " fill="#FAF4DA" transform="translate(176,0)"/>
<path d="M0 0 C3.75563429 2.20919664 7.38776679 4.56384272 11 7 C9.02 7.99 9.02 7.99 7 9 C6.401875 8.34 5.80375 7.68 5.1875 7 C3.12498166 4.6626154 3.12498166 4.6626154 0 5 C0 3.35 0 1.7 0 0 Z " fill="#54B110" transform="translate(223,107)"/>
<path d="M0 0 C3.82946843 1.45255699 5.12050295 3.42895561 7 7 C3.88742431 7 1.89234315 6.82638376 -1 6 C-0.67 4.02 -0.34 2.04 0 0 Z " fill="#F7F7F6" transform="translate(201,96)"/>
<path d="M0 0 C4.99464924 0.47568088 8.02785403 1.95160891 12 5 C12.33 5.66 12.66 6.32 13 7 C12.21625 6.814375 11.4325 6.62875 10.625 6.4375 C8.02910225 5.74037734 8.02910225 5.74037734 6 7 C5.34 6.67 4.68 6.34 4 6 C4.33 4.68 4.66 3.36 5 2 C3.35 2 1.7 2 0 2 C0 1.34 0 0.68 0 0 Z " fill="#53AF0D" transform="translate(246,72)"/>
<path d="M0 0 C-0.33 0.66 -0.66 1.32 -1 2 C-1 2.99 -1 3.98 -1 5 C-4 7 -4 7 -6 8 C-6.66 7.34 -7.32 6.68 -8 6 C-7.649375 5.38125 -7.29875 4.7625 -6.9375 4.125 C-6.628125 3.42375 -6.31875 2.7225 -6 2 C-6.33 1.34 -6.66 0.68 -7 0 C-3.86650268 -1.04449911 -3.01031744 -0.93423645 0 0 Z " fill="#2E2E2E" transform="translate(200,113)"/>
<path d="M0 0 C0.33 0.66 0.66 1.32 1 2 C1.66 2.33 2.32 2.66 3 3 C2.01 3.33 1.02 3.66 0 4 C0 5.65 0 7.3 0 9 C1.32 9.33 2.64 9.66 4 10 C3.67 10.99 3.34 11.98 3 13 C0.69 11.35 -1.62 9.7 -4 8 C-2.87548273 5.0280615 -1.77706209 2.66559313 0 0 Z " fill="#6AB311" transform="translate(191,76)"/>
<path d="M0 0 C0 3 0 3 -3 8 C-6.63 6.35 -10.26 4.7 -14 3 C-10 2 -10 2 -7 2 C-7 2.66 -7 3.32 -7 4 C-5.68 4.33 -4.36 4.66 -3 5 C-2.690625 4.360625 -2.38125 3.72125 -2.0625 3.0625 C-1 1 -1 1 0 0 Z " fill="#ECBD1E" transform="translate(190,76)"/>
<path d="M0 0 C1.15903225 3.96146843 0.70277367 6.92391271 0 11 C-0.185625 12.134375 -0.37125 13.26875 -0.5625 14.4375 C-0.7790625 15.7059375 -0.7790625 15.7059375 -1 17 C-1.66 17 -2.32 17 -3 17 C-3.33 17.66 -3.66 18.32 -4 19 C-3.37968409 12.42465139 -1.85102717 6.33307408 0 0 Z " fill="#E06E45" transform="translate(14,101)"/>
<path d="M0 0 C2.97 0.495 2.97 0.495 6 1 C6.66 3.64 7.32 6.28 8 9 C7.01 9.495 7.01 9.495 6 10 C4.99421411 8.71283353 3.99553202 7.42011342 3 6.125 C2.443125 5.40570313 1.88625 4.68640625 1.3125 3.9453125 C0 2 0 2 0 0 Z " fill="#F1F9EA" transform="translate(265,56)"/>
<path d="M0 0 C0.66 0 1.32 0 2 0 C2 0.66 2 1.32 2 2 C5.465 1.505 5.465 1.505 9 1 C8.4225 1.268125 7.845 1.53625 7.25 1.8125 C4.94925609 2.93308209 4.94925609 2.93308209 3 4.625 C1 6 1 6 -3 6 C-2.42655063 3.13275314 -2.1385485 2.1385485 0 0 Z " fill="#F9E9DC" transform="translate(49,99)"/>
<path d="M0 0 C2.9375 0.8125 2.9375 0.8125 6 2 C6.33 2.99 6.66 3.98 7 5 C8.32 5 9.64 5 11 5 C11.33 6.65 11.66 8.3 12 10 C9 10 9 10 6.375 7.6875 C4 5 4 5 3 2 C2.01 1.67 1.02 1.34 0 1 C0 0.67 0 0.34 0 0 Z " fill="#61B620" transform="translate(197,91)"/>
<path d="M0 0 C1.32 0 2.64 0 4 0 C4 2.64 4 5.28 4 8 C2.68 8 1.36 8 0 8 C0 5.36 0 2.72 0 0 Z " fill="#D6EDC6" transform="translate(220,88)"/>
<path d="M0 0 C0.99 0.33 1.98 0.66 3 1 C1.89718873 2.27200971 0.79269231 3.54255853 -0.3125 4.8125 C-1.23482422 5.87404297 -1.23482422 5.87404297 -2.17578125 6.95703125 C-3.73334335 8.70136739 -5.32658875 10.36778041 -7 12 C-7.33 11.01 -7.66 10.02 -8 9 C-7.01 8.67 -6.02 8.34 -5 8 C-4.67 6.35 -4.34 4.7 -4 3 C-3.34 3 -2.68 3 -2 3 C-2 2.34 -2 1.68 -2 1 C-1.34 0.67 -0.68 0.34 0 0 Z " fill="#F8F3E8" transform="translate(42,48)"/>
<path d="M0 0 C0.33 0.66 0.66 1.32 1 2 C5.455 1.505 5.455 1.505 10 1 C10.33 1.99 10.66 2.98 11 4 C10.21625 4.12375 9.4325 4.2475 8.625 4.375 C5.85942178 4.79117993 5.85942178 4.79117993 4 7 C2.35 5.02 0.7 3.04 -1 1 C-0.67 0.67 -0.34 0.34 0 0 Z " fill="#EA6340" transform="translate(41,103)"/>
<path d="M0 0 C0.33 0.66 0.66 1.32 1 2 C1.66 2.33 2.32 2.66 3 3 C0.69 4.98 -1.62 6.96 -4 9 C-4.33 6.69 -4.66 4.38 -5 2 C-3.68 2.33 -2.36 2.66 -1 3 C-0.67 2.01 -0.34 1.02 0 0 Z " fill="#EB5F33" transform="translate(102,89)"/>
<path d="M0 0 C2.91488977 2.6234008 4.88503898 5.71816394 7 9 C6.67 9.66 6.34 10.32 6 11 C4.02 9.35 2.04 7.7 0 6 C-0.33 6.66 -0.66 7.32 -1 8 C-0.67 5.36 -0.34 2.72 0 0 Z " fill="#EC631A" transform="translate(97,53)"/>
<path d="M0 0 C2 3 2 3 2 5 C1.38125 5.268125 0.7625 5.53625 0.125 5.8125 C-2.2995233 6.95556848 -2.2995233 6.95556848 -4 10 C-4.66 10 -5.32 10 -6 10 C-6.33 9.01 -6.66 8.02 -7 7 C-5.47005208 5.76302083 -3.94010417 4.52604167 -2.41015625 3.2890625 C-0.86733563 2.0333609 -0.86733563 2.0333609 0 0 Z " fill="#353535" transform="translate(159,148)"/>
<path d="M0 0 C1.5 1.375 1.5 1.375 3 3 C3 3.66 3 4.32 3 5 C3.99 5.33 4.98 5.66 6 6 C6 6.33 6 6.66 6 7 C4.0085944 7.38133299 2.00720923 7.71325582 0 8 C-1 7 -1 7 -1.125 4 C-1 1 -1 1 0 0 Z " fill="#E96035" transform="translate(36,104)"/>
<path d="M0 0 C0.33 0 0.66 0 1 0 C2.3323486 6.29837518 2.3323486 6.29837518 0.875 9.375 C-1.38923394 11.33733608 -3.05436986 11.6815535 -6 12 C-4.625 9.5 -4.625 9.5 -3 7 C-2.34 7 -1.68 7 -1 7 C-0.67 4.69 -0.34 2.38 0 0 Z " fill="#F4C02E" transform="translate(174,43)"/>
<path d="M0 0 C0.33 0 0.66 0 1 0 C1.02705729 1.77074917 1.04642195 3.54161711 1.0625 5.3125 C1.07410156 6.29863281 1.08570313 7.28476562 1.09765625 8.30078125 C1 11 1 11 0 14 C-0.66 14 -1.32 14 -2 14 C-2.05389087 12.04196493 -2.09274217 10.08351091 -2.125 8.125 C-2.14820313 7.03445312 -2.17140625 5.94390625 -2.1953125 4.8203125 C-2 2 -2 2 0 0 Z " fill="#FDF4E0" transform="translate(174,32)"/>
<path d="M0 0 C0 0.66 0 1.32 0 2 C0.99 2.33 1.98 2.66 3 3 C2.01 3.495 2.01 3.495 1 4 C1.33 4.99 1.66 5.98 2 7 C0 7 0 7 -2.5625 4.625 C-5 2 -5 2 -6 0 C-3.50907189 -1.24546405 -2.58919267 -0.7767578 0 0 Z " fill="#EDF5E5" transform="translate(248,33)"/>
<path d="M0 0 C3 1 3 1 6 3 C4.88625 3.474375 3.7725 3.94875 2.625 4.4375 C0.73289006 5.25306463 -1.15712709 6.07856355 -3 7 C-3 6.34 -3 5.68 -3 5 C-3.66 4.67 -4.32 4.34 -5 4 C-2.6875 1.9375 -2.6875 1.9375 0 0 Z " fill="#FCECC2" transform="translate(141,15)"/>
<path d="M0 0 C4.38889325 0.66498383 7.9811485 2.18757677 12 4 C11.01 5.485 11.01 5.485 10 7 C8.68 7 7.36 7 6 7 C6.33 5.68 6.66 4.36 7 3 C6.01 3.33 5.02 3.66 4 4 C4 3.34 4 2.68 4 2 C2.68 2 1.36 2 0 2 C0 1.34 0 0.68 0 0 Z " fill="#F3B81B" transform="translate(196,9)"/>
<path d="M0 0 C0 0.66 0 1.32 0 2 C0.66 2.33 1.32 2.66 2 3 C1.236875 3.45375 0.47375 3.9075 -0.3125 4.375 C-2.23632814 5.53824492 -4.12941224 6.7529415 -6 8 C-6.33 6.68 -6.66 5.36 -7 4 C-2.25 0 -2.25 0 0 0 Z " fill="#F5E0D0" transform="translate(48,71)"/>
<path d="M0 0 C3.1875 1.5 3.1875 1.5 5 3 C4.01 3.495 4.01 3.495 3 4 C2.195625 3.690625 1.39125 3.38125 0.5625 3.0625 C-4.32057652 1.60614385 -8.94171612 1.83799091 -14 2 C-9.55299615 -0.96466923 -5.21871437 -0.52568072 0 0 Z " fill="#E26640" transform="translate(64,72)"/>
<path d="M0 0 C2.55803184 3.83704776 4.34505724 7.75712791 3.625 12.4375 C3.41875 12.953125 3.2125 13.46875 3 14 C3 13.34 3 12.68 3 12 C2.34 12 1.68 12 1 12 C0.67 12.66 0.34 13.32 0 14 C0 9.38 0 4.76 0 0 Z " fill="#E1F4CE" transform="translate(217,120)"/>
<path d="M0 0 C5.61 0.33 11.22 0.66 17 1 C17 1.33 17 1.66 17 2 C15.7625 2.144375 14.525 2.28875 13.25 2.4375 C10.95010801 2.70831329 9.00824467 2.99717326 6.8125 3.75 C3.90970474 4.15038555 2.28505979 2.65032096 0 1 C0 0.67 0 0.34 0 0 Z " fill="#D1EFBB" transform="translate(231,112)"/>
<path d="M0 0 C2.875 -0.1875 2.875 -0.1875 6 0 C6.66 0.99 7.32 1.98 8 3 C5.42786866 4.61949011 4.32330841 5.04408751 1.25 4.625 C0.5075 4.41875 -0.235 4.2125 -1 4 C-0.67 2.68 -0.34 1.36 0 0 Z " fill="#F6BC21" transform="translate(122,75)"/>
<path d="M0 0 C2.96865509 2.54456151 4.3619751 5.48994665 6 9 C5.01 9.33 4.02 9.66 3 10 C1.5 8.9375 1.5 8.9375 0 7 C-0.1875 3.3125 -0.1875 3.3125 0 0 Z " fill="#62B823" transform="translate(269,63)"/>
<path d="M0 0 C0.9435441 2.53899138 1.16906025 3.60909275 0.07421875 6.140625 C-0.61220703 7.18476562 -0.61220703 7.18476562 -1.3125 8.25 C-1.76238281 8.95640625 -2.21226562 9.6628125 -2.67578125 10.390625 C-3.11277344 10.92171875 -3.54976562 11.4528125 -4 12 C-4.66 12 -5.32 12 -6 12 C-4.68139111 7.38486888 -2.78644563 3.90102388 0 0 Z " fill="#65B103" transform="translate(217,32)"/>
<path d="M0 0 C1.65 0.33 3.3 0.66 5 1 C4.67 2.32 4.34 3.64 4 5 C2.35 4.67 0.7 4.34 -1 4 C-0.67 2.68 -0.34 1.36 0 0 Z " fill="#DFF3CE" transform="translate(232,82)"/>
<path d="M0 0 C2.6075248 1.01007276 3.80441446 1.68518363 5.30078125 4.09375 C5.63464844 4.8878125 5.96851562 5.681875 6.3125 6.5 C6.65925781 7.2940625 7.00601563 8.088125 7.36328125 8.90625 C8 11 8 11 7 13 C6.74605469 12.45730469 6.49210937 11.91460937 6.23046875 11.35546875 C5.71419922 10.28232422 5.71419922 10.28232422 5.1875 9.1875 C4.85105469 8.47980469 4.51460938 7.77210937 4.16796875 7.04296875 C3.08586675 4.94242539 3.08586675 4.94242539 1.36328125 3.36328125 C0.91339844 2.91339844 0.46351562 2.46351562 0 2 C0 1.34 0 0.68 0 0 Z " fill="#FAA214" transform="translate(104,64)"/>
<path d="M0 0 C1.24546405 2.49092811 0.7767578 3.41080733 0 6 C-0.7425 6.12375 -1.485 6.2475 -2.25 6.375 C-4.81448542 6.9578376 -6.69166512 7.78664449 -9 9 C-8.06725891 7.87105124 -7.12859878 6.74699124 -6.1875 5.625 C-5.66542969 4.99851562 -5.14335938 4.37203125 -4.60546875 3.7265625 C-3 2 -3 2 0 0 Z " fill="#E35E36" transform="translate(60,34)"/>
<path d="M0 0 C0.99 0.33 1.98 0.66 3 1 C2.67 2.32 2.34 3.64 2 5 C1.67 4.34 1.34 3.68 1 3 C0.505 3.33 0.01 3.66 -0.5 4 C-4.09090894 5.43636358 -7.14456127 5.12851462 -11 5 C-11 4.67 -11 4.34 -11 4 C-10.37351563 3.87882812 -9.74703125 3.75765625 -9.1015625 3.6328125 C-8.28429687 3.46523437 -7.46703125 3.29765625 -6.625 3.125 C-5.81289062 2.96257812 -5.00078125 2.80015625 -4.1640625 2.6328125 C-1.81326077 2.13341068 -1.81326077 2.13341068 0 0 Z " fill="#CDECB3" transform="translate(253,98)"/>
<path d="M0 0 C0.66 0 1.32 0 2 0 C2.33 1.98 2.66 3.96 3 6 C2.67 6 2.34 6 2 6 C1.67 8.31 1.34 10.62 1 13 C0.67 13 0.34 13 0 13 C-0.19466332 11.20909747 -0.38051213 9.41723495 -0.5625 7.625 C-0.66691406 6.62726563 -0.77132813 5.62953125 -0.87890625 4.6015625 C-1 2 -1 2 0 0 Z " fill="#D9F0CC" transform="translate(265,83)"/>
<path d="M0 0 C1.32 0 2.64 0 4 0 C4.33 1.32 4.66 2.64 5 4 C3.35 4.33 1.7 4.66 0 5 C-0.5625 3.0625 -0.5625 3.0625 -1 1 C-0.67 0.67 -0.34 0.34 0 0 Z " fill="#F6E9D9" transform="translate(66,82)"/>
<path d="M0 0 C2.38672669 2.96283313 4.7353371 5.94270509 7 9 C6.67 9.66 6.34 10.32 6 11 C5.34 10.67 4.68 10.34 4 10 C4 9.01 4 8.02 4 7 C2.35 7.66 0.7 8.32 -1 9 C-0.835 8.071875 -0.67 7.14375 -0.5 6.1875 C0.07748388 3.04378647 0.07748388 3.04378647 0 0 Z " fill="#E9611A" transform="translate(108,72)"/>
<path d="M0 0 C0 0.66 0 1.32 0 2 C-0.99 2.33 -1.98 2.66 -3 3 C-3 3.66 -3 4.32 -3 5 C-5.31 4.67 -7.62 4.34 -10 4 C-8.68 3.67 -7.36 3.34 -6 3 C-6.33 2.01 -6.66 1.02 -7 0 C-3.86650268 -1.04449911 -3.01031744 -0.93423645 0 0 Z " fill="#EE5E34" transform="translate(72,115)"/>
<path d="M0 0 C0.66 0.66 1.32 1.32 2 2 C-2.29 2 -6.58 2 -11 2 C-11 1.34 -11 0.68 -11 0 C-7.17403486 -1.37734745 -3.92500718 -0.7995385 0 0 Z " fill="#F7FAFC" transform="translate(62,99)"/>
<path d="M0 0 C1.32 0 2.64 0 4 0 C4 1.65 4 3.3 4 5 C2.35 5 0.7 5 -1 5 C-0.67 3.35 -0.34 1.7 0 0 Z " fill="#E1F4D3" transform="translate(253,82)"/>
<path d="M0 0 C0.99 0 1.98 0 3 0 C2.690625 0.763125 2.38125 1.52625 2.0625 2.3125 C1.32106407 4.18789677 0.63771783 6.08684652 0 8 C0.66 8 1.32 8 2 8 C1.34 9.32 0.68 10.64 0 12 C-1.1671568 8.49852959 -1.13357453 5.67329964 -1 2 C-0.67 1.34 -0.34 0.68 0 0 Z " fill="#F9F6ED" transform="translate(25,64)"/>
<path d="M0 0 C2.15377564 2.62198774 3.40072174 4.64404172 4 8 C2.35 6.68 0.7 5.36 -1 4 C-1.66 5.32 -2.32 6.64 -3 8 C-3.33 7.34 -3.66 6.68 -4 6 C-2.68 4.02 -1.36 2.04 0 0 Z " fill="#6BB102" transform="translate(203,56)"/>
<path d="M0 0 C0 0.66 0 1.32 0 2 C-3.66987221 3.22329074 -6.33967822 2.88021006 -10.1875 2.5625 C-11.45980469 2.46066406 -12.73210937 2.35882813 -14.04296875 2.25390625 C-15.01878906 2.17011719 -15.99460938 2.08632813 -17 2 C-17 1.67 -17 1.34 -17 1 C-5.47835991 -0.14806378 -5.47835991 -0.14806378 0 0 Z " fill="#FBE3AE" transform="translate(163,57)"/>
<path d="M0 0 C1.32 0 2.64 0 4 0 C4 1.65 4 3.3 4 5 C2.35 5 0.7 5 -1 5 C-0.67 3.35 -0.34 1.7 0 0 Z " fill="#FBF2D3" transform="translate(160,27)"/>
<path d="M0 0 C0 0.66 0 1.32 0 2 C-0.99 2.66 -1.98 3.32 -3 4 C-3.66 4.66 -4.32 5.32 -5 6 C-7.625 6.125 -7.625 6.125 -10 6 C-4.2 0 -4.2 0 0 0 Z " fill="#E56439" transform="translate(79,22)"/>
<path d="M0 0 C2 3 2 3 3 5 C2.01 5 1.02 5 0 5 C0 5.66 0 6.32 0 7 C-1.32 6.67 -2.64 6.34 -4 6 C-2.84826645 3.53199953 -1.95216435 1.95216435 0 0 Z " fill="#FAF0E8" transform="translate(100,96)"/>
<path d="M0 0 C1.98 0.495 1.98 0.495 4 1 C4 2.32 4 3.64 4 5 C2.35 5 0.7 5 -1 5 C-0.67 3.35 -0.34 1.7 0 0 Z " fill="#F8EADD" transform="translate(46,82)"/>
<path d="M0 0 C6 7.4 6 7.4 6 11 C5.34 11 4.68 11 4 11 C0 4.5 0 4.5 0 0 Z " fill="#EA6519" transform="translate(83,29)"/>
<path d="M0 0 C2.475 0.495 2.475 0.495 5 1 C4.67 2.32 4.34 3.64 4 5 C2.68 5 1.36 5 0 5 C0 3.35 0 1.7 0 0 Z " fill="#FAF0D5" transform="translate(139,27)"/>
<path d="M0 0 C0.33 0 0.66 0 1 0 C1.33 3.3 1.66 6.6 2 10 C1.01 10.495 1.01 10.495 0 11 C0 9.35 0 7.7 0 6 C-0.66 6 -1.32 6 -2 6 C-1.34 4.02 -0.68 2.04 0 0 Z " fill="#57B116" transform="translate(291,114)"/>
<path d="M0 0 C0.66 0 1.32 0 2 0 C2 1.98 2 3.96 2 6 C0.35 6.33 -1.3 6.66 -3 7 C-1.125 2.25 -1.125 2.25 0 0 Z " fill="#F5E3D9" transform="translate(94,102)"/>
<path d="M0 0 C0.66 1.32 1.32 2.64 2 4 C0.35 4.66 -1.3 5.32 -3 6 C-4.5 4.625 -4.5 4.625 -6 3 C-6 2.34 -6 1.68 -6 1 C-5.38125 1.20625 -4.7625 1.4125 -4.125 1.625 C-3.073125 1.810625 -3.073125 1.810625 -2 2 C-1.34 1.34 -0.68 0.68 0 0 Z " fill="#FCAF0E" transform="translate(102,49)"/>
<path d="M0 0 C0 1.65 0 3.3 0 5 C-0.99 5 -1.98 5 -3 5 C-3.33 5.99 -3.66 6.98 -4 8 C-4.5534764 5.92446352 -5 4.15634036 -5 2 C-1.125 0 -1.125 0 0 0 Z " fill="#3B3B3B" transform="translate(143,143)"/>
<path d="M0 0 C-0.375 2.4375 -0.375 2.4375 -1 5 C-1.99 5.495 -1.99 5.495 -3 6 C-3.33 5.34 -3.66 4.68 -4 4 C-4.99 3.34 -5.98 2.68 -7 2 C-2.25 0 -2.25 0 0 0 Z " fill="#1E2C18" transform="translate(217,106)"/>
<path d="M0 0 C0 1.65 0 3.3 0 5 C-2.31 4.67 -4.62 4.34 -7 4 C-3.17391304 0 -3.17391304 0 0 0 Z " fill="#F6F0DD" transform="translate(120,82)"/>
<path d="M0 0 C0.66 0.33 1.32 0.66 2 1 C2.33 1.99 2.66 2.98 3 4 C0.03 4 -2.94 4 -6 4 C-4.03617993 2.49440461 -2.21736634 1.10868317 0 0 Z " fill="#1B1B1B" transform="translate(153,158)"/>
<path d="M0 0 C0.33 0.66 0.66 1.32 1 2 C-0.98 4.31 -2.96 6.62 -5 9 C-5.99 8.34 -6.98 7.68 -8 7 C-5.36 4.69 -2.72 2.38 0 0 Z " fill="#E0E0E0" transform="translate(190,133)"/>
<path d="M0 0 C2.4375 0.375 2.4375 0.375 5 1 C5.33 1.66 5.66 2.32 6 3 C5.01 4.485 5.01 4.485 4 6 C2.68 5.34 1.36 4.68 0 4 C0 2.68 0 1.36 0 0 Z " fill="#49A805" transform="translate(217,106)"/>
<path d="M0 0 C1.65 0 3.3 0 5 0 C5 0.66 5 1.32 5 2 C6.32 2.33 7.64 2.66 9 3 C9 3.66 9 4.32 9 5 C5.22454612 3.90931332 2.52956528 3.0916909 0 0 Z " fill="#69BA2C" transform="translate(230,108)"/>
<path d="M0 0 C1.98 0.99 1.98 0.99 4 2 C4 3.65 4 5.3 4 7 C3.01 7.495 3.01 7.495 2 8 C0.74335022 5.09399739 0 3.20395416 0 0 Z " fill="#E6F4D9" transform="translate(288,101)"/>
<path d="M0 0 C0.66 0.33 1.32 0.66 2 1 C1.67 3.64 1.34 6.28 1 9 C0.34 9 -0.32 9 -1 9 C-0.67 6.03 -0.34 3.06 0 0 Z " fill="#F5F7F0" transform="translate(17,84)"/>
<path d="M0 0 C2.86724686 0.57344937 3.8614515 0.8614515 6 3 C6 3.99 6 4.98 6 6 C3.37812506 4.95125002 2.20628639 4.35068687 0.75 1.875 C0.5025 1.25625 0.255 0.6375 0 0 Z " fill="#F7F4EC" transform="translate(70,74)"/>
<path d="M0 0 C0.33 0.66 0.66 1.32 1 2 C0.34 2 -0.32 2 -1 2 C-1 2.99 -1 3.98 -1 5 C-5.875 3.25 -5.875 3.25 -7 1 C-3.535 0.505 -3.535 0.505 0 0 Z " fill="#F3BC24" transform="translate(143,51)"/>
<path d="M0 0 C1.65 0 3.3 0 5 0 C3.63016497 3.16115776 3.0109362 3.9927092 0 6 C-1.125 2.25 -1.125 2.25 0 0 Z " fill="#F3B916" transform="translate(164,48)"/>
<path d="M0 0 C0.99 0.495 0.99 0.495 2 1 C2 1.66 2 2.32 2 3 C2.66 3 3.32 3 4 3 C4.33 4.65 4.66 6.3 5 8 C1.125 6.125 1.125 6.125 0 5 C-0.04063832 3.33382885 -0.042721 1.66611905 0 0 Z " fill="#F9F7E7" transform="translate(130,45)"/>
<path d="M0 0 C2.97 0.495 2.97 0.495 6 1 C4.71034824 2.37562854 3.37310707 3.70766393 2 5 C1.34 5 0.68 5 0 5 C-0.33 4.01 -0.66 3.02 -1 2 C-0.67 1.34 -0.34 0.68 0 0 Z " fill="#F9F4EE" transform="translate(64,25)"/>
<path d="M0 0 C0.33 0 0.66 0 1 0 C1.33 3.63 1.66 7.26 2 11 C1.01 11.33 0.02 11.66 -1 12 C-0.67 8.04 -0.34 4.08 0 0 Z " fill="#F8E7E3" transform="translate(81,134)"/>
<path d="M0 0 C1.65 0.99 3.3 1.98 5 3 C4.01 4.485 4.01 4.485 3 6 C2.01 5.67 1.02 5.34 0 5 C-0.75 3 -0.75 3 -1 1 C-0.67 0.67 -0.34 0.34 0 0 Z " fill="#2D2D2D" transform="translate(198,119)"/>
<path d="M0 0 C0 0.66 0 1.32 0 2 C0.66 2.33 1.32 2.66 2 3 C0.02 3.66 -1.96 4.32 -4 5 C-4 4.34 -4 3.68 -4 3 C-4.66 2.67 -5.32 2.34 -6 2 C-2.25 0 -2.25 0 0 0 Z " fill="#D8EEC5" transform="translate(256,110)"/>
<path d="M0 0 C0.99 0 1.98 0 3 0 C3.125 2.875 3.125 2.875 3 6 C2.34 6.66 1.68 7.32 1 8 C0.67 5.36 0.34 2.72 0 0 Z " fill="#F3FBEB" transform="translate(294,128)"/>
<path d="M0 0 C1.09898702 3.29696105 0.87124444 4.40494903 0.0625 7.6875 C-0.22947266 8.89986328 -0.22947266 8.89986328 -0.52734375 10.13671875 C-0.68332031 10.75160156 -0.83929688 11.36648437 -1 12 C-3.1015625 8.390625 -3.1015625 8.390625 -2.1875 4.875 C-1.50754787 3.2288001 -0.79653111 1.59306222 0 0 Z " fill="#FAF2EB" transform="translate(12,104)"/>
<path d="M0 0 C2.79872437 2.52788007 4.45773019 4.20411134 5 8 C4.34 8 3.68 8 3 8 C3 7.34 3 6.68 3 6 C2.34 6 1.68 6 1 6 C0.67 4.02 0.34 2.04 0 0 Z " fill="#E3693F" transform="translate(73,79)"/>
<path d="M0 0 C0.33 0.99 0.66 1.98 1 3 C1.66 3.33 2.32 3.66 3 4 C1.68 4.99 0.36 5.98 -1 7 C-1.66 5.35 -2.32 3.7 -3 2 C-2.01 1.34 -1.02 0.68 0 0 Z " fill="#F7BC1D" transform="translate(173,20)"/>
<path d="M0 0 C0 0.66 0 1.32 0 2 C-3.375 2.625 -3.375 2.625 -7 3 C-7.66 2.34 -8.32 1.68 -9 1 C-5.64919071 -1.10976881 -3.77897651 -1.0497157 0 0 Z " fill="#F7B128" transform="translate(86,20)"/>
<path d="M0 0 C0.99 0.33 1.98 0.66 3 1 C3 1.99 3 2.98 3 4 C-0.63 3.67 -4.26 3.34 -8 3 C-8 2.67 -8 2.34 -8 2 C-5.36 2 -2.72 2 0 2 C0 1.34 0 0.68 0 0 Z " fill="#FDF7CF" transform="translate(176,0)"/>
<path d="M0 0 C2.62187494 1.04874998 3.79371361 1.64931313 5.25 4.125 C5.4975 4.74375 5.745 5.3625 6 6 C5.34 6 4.68 6 4 6 C3.67 5.34 3.34 4.68 3 4 C1.68 4 0.36 4 -1 4 C-0.67 2.68 -0.34 1.36 0 0 Z " fill="#DEF5CF" transform="translate(201,96)"/>
<path d="M0 0 C1.9375 0.3125 1.9375 0.3125 4 1 C4.33 1.99 4.66 2.98 5 4 C4.34 4.66 3.68 5.32 3 6 C0 2.25 0 2.25 0 0 Z " fill="#ECF8E1" transform="translate(261,79)"/>
<path d="M0 0 C0.99 0.33 1.98 0.66 3 1 C3 1.99 3 2.98 3 4 C0.69 4 -1.62 4 -4 4 C-3.67 3.34 -3.34 2.68 -3 2 C-2.01 2 -1.02 2 0 2 C0 1.34 0 0.68 0 0 Z " fill="#F1572B" transform="translate(48,66)"/>
<path d="M0 0 C0.99 0.33 1.98 0.66 3 1 C1.84826645 3.46800047 0.95216435 5.04783565 -1 7 C-1.625 4.625 -1.625 4.625 -2 2 C-1.34 1.34 -0.68 0.68 0 0 Z " fill="#DCBA0C" transform="translate(221,20)"/>
<path d="M0 0 C6.75 2.75 6.75 2.75 9 5 C5.65626525 4.44271087 2.96687001 3.64826111 0 2 C0 1.34 0 0.68 0 0 Z " fill="#EDBD21" transform="translate(212,15)"/>
</svg>
